# xmcd CD database file
#
# Track frame offsets:
#	150
#	25842
#	43620
#
# Disc length: 923 seconds
#
# Revision: 2
# Processed by: cddbd v1.5.1PL0 Copyright (c) Steve Scherf et al.
# Submitted via: CDex 1.51
#
DISCID=1b039903
DTITLE=徳永英明 - I Love You
DYEAR=1992
DGENRE=JPop
TTITLE0=I LOVE YOU
TTITLE1=夢の続き
TTITLE2=I LOVE YOU (Karaoke)
EXTD=YEAR: 1992
EXTT0=
EXTT1=
EXTT2=
PLAYORDER=
